<?xml version="1.0"?>
<svg width="250" height="100" xmlns="http://www.w3.org/2000/svg" xmlns:svg="http://www.w3.org/2000/svg">
 <g class="layer" display="inline">
  <title>Layer 1</title>
  <path d="m40.81,64.89c-0.6,0 -1.18,-0.23 -1.7,-0.69c-0.54,-0.45 -1.07,-1.17 -1.58,-2.13c-0.49,-1 -1.02,-2.26 -1.56,-3.75c-0.67,-1.88 -1.35,-3.55 -2.05,-5.03c-0.7,-1.48 -1.48,-2.76 -2.34,-3.84l-3.14,0l0,13.81l1.89,0.54l0,0.43l-7.37,0l0,-0.43l1.89,-0.54l0,-28.25l-1.89,-0.51l0,-0.43l10.85,0c1.59,0 2.94,0.26 4.04,0.81c1.1,0.51 1.93,1.32 2.48,2.39c0.56,1.06 0.84,2.37 0.84,3.97c0,1.48 -0.33,2.77 -0.97,3.91c-0.64,1.11 -1.58,1.99 -2.83,2.68c-1.24,0.64 -2.77,1.07 -4.57,1.23l0,0.29c0.7,0.07 1.34,0.26 1.93,0.54c0.6,0.28 1.13,0.69 1.62,1.19c0.49,0.51 0.94,1.14 1.34,1.88c0.38,0.73 0.75,1.61 1.08,2.59c0.56,1.76 1.05,3.21 1.46,4.34c0.45,1.14 0.81,1.99 1.15,2.57c0.33,0.56 0.62,0.89 0.86,0.98c0.22,0.12 0.45,0.13 0.68,0.04l0,0.43c-0.21,0.23 -0.45,0.41 -0.72,0.54c-0.25,0.13 -0.49,0.23 -0.75,0.29c-0.25,0.06 -0.48,0.07 -0.68,0.07l-0.02,0.03l0.03,0.03zm-9.55,-16.27c0.99,0 1.88,-0.18 2.67,-0.51c0.81,-0.34 1.5,-0.82 2.05,-1.45c0.56,-0.63 0.99,-1.38 1.27,-2.26c0.32,-0.91 0.46,-1.92 0.46,-3.03c0,-1.45 -0.21,-2.65 -0.62,-3.62c-0.4,-1 -0.99,-1.74 -1.77,-2.26c-0.76,-0.51 -1.7,-0.76 -2.8,-0.76c-0.89,0 -1.67,0.03 -2.34,0.07c-0.67,0.06 -1.26,0.13 -1.77,0.25l0,13.29c0.32,0.07 0.67,0.16 1.08,0.22c0.41,0.03 0.99,0.04 1.73,0.04l-0.02,0.03l0.03,-0.01zm12.25,15.64l0,-0.43l1.93,-0.54l8.32,-29.18l2.36,0l8.2,29.18l1.89,0.54l0,0.43l-7.93,0l0,-0.34l2.21,-0.6l-7.05,-25.27l-0.33,0l-3.85,14.07c-0.38,1.28 -0.67,2.51 -0.86,3.66c-0.19,1.17 -0.27,2.18 -0.27,3.06c0,0.97 0.13,1.83 0.38,2.59c0.27,0.76 0.7,1.36 1.27,1.79c0.57,0.4 1.34,0.6 2.28,0.6l0,0.43l-8.51,0l-0.02,0l-0.02,0zm5.35,-12.27l0,-0.43l8.67,-0.47l0,0.89l-8.67,0zm37.3,12.91c-0.6,0 -1.18,-0.23 -1.7,-0.69c-0.54,-0.45 -1.07,-1.17 -1.58,-2.13c-0.49,-1 -1.02,-2.26 -1.56,-3.75c-0.67,-1.88 -1.35,-3.55 -2.05,-5.03c-0.7,-1.48 -1.48,-2.76 -2.34,-3.84l-3.14,0l0,13.81l1.89,0.54l0,0.43l-7.37,0l0,-0.43l1.89,-0.54l0,-28.25l-1.89,-0.51l0,-0.43l10.85,0c1.59,0 2.94,0.26 4.04,0.81c1.1,0.51 1.93,1.32 2.48,2.39c0.56,1.06 0.84,2.37 0.84,3.97c0,1.48 -0.33,2.77 -0.97,3.91c-0.64,1.11 -1.58,1.99 -2.83,2.68c-1.24,0.64 -2.77,1.07 -4.57,1.23l0,0.29c0.7,0.07 1.34,0.26 1.93,0.54c0.6,0.28 1.13,0.69 1.62,1.19c0.49,0.51 0.94,1.14 1.34,1.88c0.38,0.73 0.75,1.61 1.08,2.59c0.56,1.76 1.05,3.21 1.46,4.34c0.45,1.14 0.81,1.99 1.15,2.57c0.33,0.56 0.62,0.89 0.86,0.98c0.22,0.12 0.45,0.13 0.68,0.04l0,0.43c-0.21,0.23 -0.45,0.41 -0.72,0.54c-0.25,0.13 -0.49,0.23 -0.75,0.29c-0.25,0.06 -0.48,0.07 -0.68,0.07l-0.02,0.03l0.03,0.03zm-9.55,-16.27c0.99,0 1.88,-0.18 2.67,-0.51c0.81,-0.34 1.5,-0.82 2.05,-1.45c0.56,-0.63 0.99,-1.38 1.27,-2.26c0.32,-0.91 0.46,-1.92 0.46,-3.03c0,-1.45 -0.21,-2.65 -0.62,-3.62c-0.4,-1 -0.99,-1.74 -1.77,-2.26c-0.76,-0.51 -1.7,-0.76 -2.8,-0.76c-0.89,0 -1.67,0.03 -2.34,0.07c-0.67,0.06 -1.26,0.13 -1.77,0.25l0,13.29c0.32,0.07 0.67,0.16 1.08,0.22c0.41,0.03 0.99,0.04 1.73,0.04l-0.02,0.03l0.03,-0.01zm13.51,15.64l0,-0.43l1.89,-0.64l0,-28.04l-1.89,-0.64l0,-0.43l17.52,0l-1.05,10.66l-0.4,0l-0.99,-6.86c-0.19,-1.11 -0.51,-1.91 -0.97,-2.39c-0.45,-0.51 -1,-0.76 -1.69,-0.76l-6.95,0l0,13.9l3.61,0c0.3,0 0.56,-0.09 0.81,-0.29c0.25,-0.23 0.46,-0.5 0.65,-0.81c0.3,-0.45 0.53,-1.1 0.68,-1.92c0.19,-0.82 0.3,-1.71 0.33,-2.68l0.32,0l0,10.61l-0.32,0l-2.08,-4.34l-4.01,0l0,14.45l7.27,0c0.7,0 1.29,-0.34 1.77,-0.98c0.48,-0.64 0.81,-1.63 0.99,-2.93l0.56,-6.57l0.4,0l1.05,11.13l-17.52,0l0,-0.01l0.02,-0.01zm30.02,0.64c-0.99,0 -1.99,-0.13 -3.01,-0.43c-1.02,-0.25 -2.01,-0.63 -2.99,-1.11c-0.99,-0.51 -1.88,-1.11 -2.74,-1.83l0.62,-9.59l0.46,0l1.18,5.79c0.22,1.39 0.65,2.59 1.27,3.58c0.64,0.97 1.43,1.7 2.36,2.21c0.95,0.48 2.02,0.72 3.2,0.72c1.07,0 2.01,-0.21 2.77,-0.6c0.76,-0.4 1.34,-0.98 1.73,-1.74c0.41,-0.76 0.62,-1.66 0.62,-2.68c0,-1.11 -0.21,-2.1 -0.59,-2.93c-0.4,-0.85 -1.05,-1.67 -1.99,-2.46c-0.92,-0.82 -2.2,-1.69 -3.79,-2.59c-1.91,-1.19 -3.42,-2.29 -4.54,-3.28c-1.11,-1.01 -1.93,-2.05 -2.39,-3.11c-0.48,-1.06 -0.72,-2.21 -0.72,-3.5c0,-1.17 0.19,-2.23 0.59,-3.2c0.38,-0.97 0.95,-1.79 1.69,-2.46c0.75,-0.7 1.64,-1.25 2.67,-1.63c1.03,-0.4 2.21,-0.6 3.52,-0.6c1.16,0 2.24,0.16 3.29,0.47c1.03,0.28 1.97,0.69 2.83,1.19c0.84,0.51 1.56,1.1 2.15,1.74l-1.03,8.9l-0.45,0l-0.56,-3.8c-0.32,-1.85 -0.76,-3.36 -1.34,-4.51c-0.57,-1.17 -1.31,-2.01 -2.18,-2.57c-0.86,-0.54 -1.86,-0.81 -3.04,-0.81c-1.15,0 -2.12,0.21 -2.93,0.6c-0.81,0.38 -1.43,0.91 -1.86,1.63c-0.45,0.7 -0.65,1.58 -0.65,2.59c0,1.01 0.21,1.96 0.65,2.81c0.45,0.85 1.19,1.71 2.23,2.59c1.05,0.88 2.48,1.85 4.27,2.9c1.4,0.81 2.58,1.57 3.52,2.3c0.95,0.73 1.72,1.48 2.29,2.21c0.57,0.73 0.99,1.52 1.24,2.35c0.27,0.82 0.4,1.74 0.4,2.73c0,1.11 -0.16,2.1 -0.46,2.99c-0.32,0.88 -0.75,1.64 -1.31,2.3c-0.56,0.63 -1.21,1.16 -1.96,1.58c-0.73,0.43 -1.51,0.73 -2.39,0.94c-0.86,0.21 -1.73,0.29 -2.67,0.29l0.02,0.01zm17.75,-0.64l0,-0.43l1.89,-0.54l0,-28.55l-3.07,0c-0.56,0 -1.05,0.18 -1.5,0.51c-0.41,0.31 -0.76,0.85 -1.03,1.58c-0.27,0.73 -0.48,1.74 -0.62,2.99l-0.65,5.63l-0.53,0l-0.91,-11.33l20.2,0l-0.91,11.33l-0.53,0l-0.65,-5.45c-0.13,-1.32 -0.33,-2.33 -0.59,-3.06c-0.27,-0.76 -0.62,-1.32 -1.05,-1.66c-0.41,-0.34 -0.92,-0.51 -1.5,-0.51l-3.1,0l0,28.55l1.93,0.54l0,0.43l-7.4,0l0,-0.01l0.02,-0.01zm26.36,-30.81c1.5,0 2.85,0.34 4.07,0.98c1.23,0.64 2.28,1.63 3.17,2.93c0.91,1.32 1.61,2.93 2.08,4.9c0.49,1.93 0.75,4.21 0.75,6.82c0,2.57 -0.24,4.82 -0.72,6.82c-0.48,1.96 -1.16,3.61 -2.05,4.95c-0.89,1.33 -1.96,2.35 -3.2,3.03c-1.23,0.69 -2.59,1.01 -4.11,1.01c-1.51,0 -2.9,-0.34 -4.14,-1.01c-1.24,-0.7 -2.31,-1.74 -3.2,-3.06c-0.89,-1.33 -1.58,-2.99 -2.08,-4.95c-0.48,-1.99 -0.72,-4.27 -0.72,-6.82c0,-2.42 0.24,-4.57 0.72,-6.48c0.48,-1.93 1.15,-3.56 2.02,-4.9c0.89,-1.36 1.96,-2.4 3.2,-3.11c1.27,-0.73 2.66,-1.11 4.2,-1.11l0,-0.01l0,0.01zm0,0.54c-1.03,0 -1.96,0.31 -2.77,0.94c-0.81,0.63 -1.5,1.57 -2.05,2.81c-0.54,1.25 -0.95,2.81 -1.24,4.69c-0.27,1.88 -0.4,4.06 -0.4,6.57c0,2.52 0.13,4.75 0.4,6.65c0.29,1.91 0.7,3.5 1.24,4.78c0.56,1.28 1.24,2.26 2.05,2.9c0.81,0.64 1.73,0.98 2.77,0.98c1.05,0 1.99,-0.31 2.77,-0.94c0.81,-0.63 1.48,-1.58 2.02,-2.86c0.54,-1.28 0.94,-2.87 1.21,-4.78c0.27,-1.93 0.4,-4.18 0.4,-6.77c0,-2.51 -0.13,-4.69 -0.4,-6.57c-0.27,-1.88 -0.68,-3.44 -1.21,-4.69c-0.54,-1.25 -1.21,-2.17 -2.02,-2.77c-0.78,-0.63 -1.7,-0.94 -2.77,-0.94l0,-0.01zm13.32,30.27l0,-0.43l2.18,-0.54l0,-25.31c0,-0.64 -0.19,-1.29 -0.59,-1.92c-0.38,-0.64 -0.92,-1.17 -1.58,-1.52l0,-0.43l4.85,0l13.99,24.38l0.4,0l0,-13.6c0,-1 -0.06,-1.95 -0.19,-2.86c-0.13,-0.91 -0.33,-1.74 -0.62,-2.52c-0.27,-0.81 -0.6,-1.52 -1.03,-2.17c-0.41,-0.64 -0.91,-1.2 -1.5,-1.66c-0.56,-0.48 -1.19,-0.86 -1.93,-1.16l0,-0.43l8.08,0l0,0.43l-2.36,0.54l0,29.18l-1.93,0l-14.74,-25.56l-0.4,0l0,12.87c0,1.19 0.06,2.32 0.19,3.37c0.16,1.01 0.37,1.99 0.65,2.9c0.3,0.88 0.67,1.7 1.11,2.46c0.46,0.73 1,1.41 1.64,1.99c0.64,0.6 1.4,1.11 2.28,1.52l0,0.43l-8.51,0l-0.02,0l0,0.03zm24.72,0l0,-0.43l1.89,-0.64l0,-28.04l-1.89,-0.64l0,-0.43l17.52,0l-1.05,10.66l-0.4,0l-0.99,-6.86c-0.19,-1.11 -0.51,-1.91 -0.97,-2.39c-0.46,-0.51 -1.02,-0.76 -1.69,-0.76l-6.95,0l0,13.9l3.61,0c0.29,0 0.56,-0.09 0.81,-0.29c0.25,-0.23 0.46,-0.5 0.65,-0.81c0.29,-0.45 0.51,-1.1 0.68,-1.92c0.19,-0.82 0.3,-1.71 0.33,-2.68l0.32,0l0,10.61l-0.32,0l-2.08,-4.34l-4.01,0l0,14.45l7.27,0c0.7,0 1.29,-0.34 1.77,-0.98c0.48,-0.64 0.81,-1.63 0.99,-2.93l0.56,-6.57l0.4,0l1.05,11.13l-17.52,0l0,-0.01l0.02,-0.01z" fill="black" id="svg_1"/>
 </g>
</svg>